

<svg xmlns="http://www.w3.org/2000/svg" fill="#fff" xml:space="preserve" width="14px" height="14px" viewBox="0 0 297 297">
    <path d="M148.5 0A111 111 0 0 0 37.7 110.8c0 91 99.8 179.9 104 183.6a10.2 10.2 0 0 0 13.6 0c4.2-3.7 104-92.6 104-183.6A111 111 0 0 0 148.5 0zm0 272.7c-22-21.4-90.2-93-90.2-161.9a90.4 90.4 0 0 1 180.4 0c0 68.9-68.2 140.5-90.2 161.9z"/>
    <path d="M148.5 59.2a51.5 51.5 0 0 0-51.3 51.6c0 28.5 23 51.6 51.3 51.6a51.5 51.5 0 0 0 51.3-51.6c0-28.5-23-51.6-51.3-51.6zm0 82.7a31 31 0 0 1-30.8-31.1 31 31 0 0 1 30.8-31.1 31 31 0 0 1 30.8 31.1 31 31 0 0 1-30.8 31.1z"/>
</svg>