
<svg fill="#fff" height="14px" width="auto" xmlns="http://www.w3.org/2000/svg" xml:space="preserve" style="enable-background:new 0 0 122.88 122.27" viewBox="0 0 122.9 122.3">
<path d="M33.8 50.3a86.3 86.3 0 0 0 39 38.8c.7.3 1.4.3 2 0 1-.3 2-1.1 3-2l2.6-3.3c3.8-5 8.6-11.3 15.3-8.2l.4.2 22.4 12.9.2.1c3 2 4.1 5.2 4.2 8.8a23.6 23.6 0 0 1-14 20.6 49 49 0 0 1-33.6 1.9 90 90 0 0 1-20.4-9.8l-.5-.4A130.4 130.4 0 0 1 9.5 64c-7.2-13-11-27-9-40.2 1.3-7.3 4.4-14 9.8-18.3 4.8-3.9 11.2-6 19.5-5.2 1 0 1.8.6 2.3 1.4L46.4 26c2.1 2.7 2.4 5.4 1.2 8-1 2.3-2.8 4.3-5.5 6.2-.7.7-1.7 1.3-2.6 2-3.2 2.4-6.9 5-5.6 8.2z"/>
</svg>